<?xml version="1.0" encoding="utf-8"?>
<!-- Generator: Adobe Illustrator 16.0.0, SVG Export Plug-In . SVG Version: 6.00 Build 0)  -->
<!DOCTYPE svg PUBLIC "-//W3C//DTD SVG 1.1//EN" "http://www.w3.org/Graphics/SVG/1.1/DTD/svg11.dtd">
<svg version="1.1" id="Layer_1" xmlns="http://www.w3.org/2000/svg" xmlns:xlink="http://www.w3.org/1999/xlink" x="0px" y="0px"
	 width="100px" height="100px" viewBox="0 0 100 100" enable-background="new 0 0 100 100" xml:space="preserve">
<g>
	<path fill="#056B8D" d="M50,12.5c-20.712,0-37.5,16.793-37.5,37.502C12.5,70.712,29.288,87.5,50,87.5s37.5-16.788,37.5-37.498
		C87.5,29.293,70.712,12.5,50,12.5z M53.826,70.859c0,0.721-0.584,1.305-1.305,1.305h-5.043c-0.72,0-1.304-0.583-1.304-1.305V46.642
		c0-0.72,0.584-1.304,1.304-1.304h5.043c0.721,0,1.305,0.583,1.305,1.304V70.859z M49.969,39.933c-2.47,0-4.518-2.048-4.518-4.579
		c0-2.53,2.048-4.518,4.518-4.518c2.531,0,4.579,1.987,4.579,4.518C54.549,37.885,52.5,39.933,49.969,39.933z"/>
</g>
</svg>
